<svg xmlns="http://www.w3.org/2000/svg" viewBox="0 0 663 394" width="663" height="394" font-family="-apple-system,Segoe UI,Roboto,Helvetica,sans-serif"><rect width="663" height="394" fill="white"/><text x="54" y="27" font-size="17" font-weight="700" fill="#1a1a1a">Edit-error rate by model and style</text><text x="54" y="45" font-size="12" fill="#666">wrap-in-else edit, 7 local models, R=6 — lower is better. Note: the effect flips per model.</text><line x1="54" y1="286.0" x2="642" y2="286.0" stroke="#ececec" stroke-width="1"/><text x="47" y="290.0" font-size="11" fill="#999" text-anchor="end">0%</text><line x1="54" y1="228.5" x2="642" y2="228.5" stroke="#ececec" stroke-width="1"/><text x="47" y="232.5" font-size="11" fill="#999" text-anchor="end">25%</text><line x1="54" y1="171.0" x2="642" y2="171.0" stroke="#ececec" stroke-width="1"/><text x="47" y="175.0" font-size="11" fill="#999" text-anchor="end">50%</text><line x1="54" y1="113.5" x2="642" y2="113.5" stroke="#ececec" stroke-width="1"/><text x="47" y="117.5" font-size="11" fill="#999" text-anchor="end">75%</text><line x1="54" y1="56.0" x2="642" y2="56.0" stroke="#ececec" stroke-width="1"/><text x="47" y="60.0" font-size="11" fill="#999" text-anchor="end">100%</text><rect x="63.0" y="56.0" width="20.0" height="230.0" fill="#e15759" rx="1.5"/><text x="73.0" y="53.0" font-size="9" fill="#555" text-anchor="middle">100</text><rect x="86.0" y="286.0" width="20.0" height="0.0" fill="#4e79a7" rx="1.5"/><text x="96.0" y="283.0" font-size="9" fill="#555" text-anchor="middle">0</text><rect x="109.0" y="260.4" width="20.0" height="25.6" fill="#59a14f" rx="1.5"/><text x="119.0" y="257.4" font-size="9" fill="#555" text-anchor="middle">11</text><text x="96.0" y="301" font-size="10.5" fill="#333" text-anchor="end" transform="rotate(-32 96.0 301)">aya-expanse:8b</text><rect x="147.0" y="132.7" width="20.0" height="153.3" fill="#e15759" rx="1.5"/><text x="157.0" y="129.7" font-size="9" fill="#555" text-anchor="middle">67</text><rect x="170.0" y="247.7" width="20.0" height="38.3" fill="#4e79a7" rx="1.5"/><text x="180.0" y="244.7" font-size="9" fill="#555" text-anchor="middle">17</text><rect x="193.0" y="132.7" width="20.0" height="153.3" fill="#59a14f" rx="1.5"/><text x="203.0" y="129.7" font-size="9" fill="#555" text-anchor="middle">67</text><text x="180.0" y="301" font-size="10.5" fill="#333" text-anchor="end" transform="rotate(-32 180.0 301)">gemma2:9b</text><rect x="231.0" y="145.4" width="20.0" height="140.6" fill="#e15759" rx="1.5"/><text x="241.0" y="142.4" font-size="9" fill="#555" text-anchor="middle">61</text><rect x="254.0" y="56.0" width="20.0" height="230.0" fill="#4e79a7" rx="1.5"/><text x="264.0" y="53.0" font-size="9" fill="#555" text-anchor="middle">100</text><rect x="277.0" y="158.2" width="20.0" height="127.8" fill="#59a14f" rx="1.5"/><text x="287.0" y="155.2" font-size="9" fill="#555" text-anchor="middle">56</text><text x="264.0" y="301" font-size="10.5" fill="#333" text-anchor="end" transform="rotate(-32 264.0 301)">gemma3:latest</text><rect x="315.0" y="247.7" width="20.0" height="38.3" fill="#e15759" rx="1.5"/><text x="325.0" y="244.7" font-size="9" fill="#555" text-anchor="middle">17</text><rect x="338.0" y="286.0" width="20.0" height="0.0" fill="#4e79a7" rx="1.5"/><text x="348.0" y="283.0" font-size="9" fill="#555" text-anchor="middle">0</text><rect x="361.0" y="273.2" width="20.0" height="12.8" fill="#59a14f" rx="1.5"/><text x="371.0" y="270.2" font-size="9" fill="#555" text-anchor="middle">6</text><text x="348.0" y="301" font-size="10.5" fill="#333" text-anchor="end" transform="rotate(-32 348.0 301)">qwen-coder-local:latest</text><rect x="399.0" y="247.7" width="20.0" height="38.3" fill="#e15759" rx="1.5"/><text x="409.0" y="244.7" font-size="9" fill="#555" text-anchor="middle">17</text><rect x="422.0" y="286.0" width="20.0" height="0.0" fill="#4e79a7" rx="1.5"/><text x="432.0" y="283.0" font-size="9" fill="#555" text-anchor="middle">0</text><rect x="445.0" y="273.2" width="20.0" height="12.8" fill="#59a14f" rx="1.5"/><text x="455.0" y="270.2" font-size="9" fill="#555" text-anchor="middle">6</text><text x="432.0" y="301" font-size="10.5" fill="#333" text-anchor="end" transform="rotate(-32 432.0 301)">qwen2.5-coder:7b</text><rect x="483.0" y="68.8" width="20.0" height="217.2" fill="#e15759" rx="1.5"/><text x="493.0" y="65.8" font-size="9" fill="#555" text-anchor="middle">94</text><rect x="506.0" y="94.3" width="20.0" height="191.7" fill="#4e79a7" rx="1.5"/><text x="516.0" y="91.3" font-size="9" fill="#555" text-anchor="middle">83</text><rect x="529.0" y="94.3" width="20.0" height="191.7" fill="#59a14f" rx="1.5"/><text x="539.0" y="91.3" font-size="9" fill="#555" text-anchor="middle">83</text><text x="516.0" y="301" font-size="10.5" fill="#333" text-anchor="end" transform="rotate(-32 516.0 301)">qwen2.5:3b</text><rect x="567.0" y="222.1" width="20.0" height="63.9" fill="#e15759" rx="1.5"/><text x="577.0" y="219.1" font-size="9" fill="#555" text-anchor="middle">28</text><rect x="590.0" y="145.4" width="20.0" height="140.6" fill="#4e79a7" rx="1.5"/><text x="600.0" y="142.4" font-size="9" fill="#555" text-anchor="middle">61</text><rect x="613.0" y="183.8" width="20.0" height="102.2" fill="#59a14f" rx="1.5"/><text x="623.0" y="180.8" font-size="9" fill="#555" text-anchor="middle">44</text><text x="600.0" y="301" font-size="10.5" fill="#333" text-anchor="end" transform="rotate(-32 600.0 301)">qwen2.5:7b</text><rect x="54" y="349" width="13" height="13" fill="#e15759" rx="2"/><text x="72" y="360" font-size="12.5" fill="#333">braceless</text><rect x="172" y="349" width="13" height="13" fill="#4e79a7" rx="2"/><text x="190" y="360" font-size="12.5" fill="#333">braces</text><rect x="290" y="349" width="13" height="13" fill="#59a14f" rx="2"/><text x="308" y="360" font-size="12.5" fill="#333">common</text></svg>
