<svg xmlns="http://www.w3.org/2000/svg" viewBox="0 0 683 394" width="683" height="394" font-family="-apple-system,Segoe UI,Roboto,Helvetica,sans-serif"><rect width="683" height="394" fill="white"/><text x="54" y="27" font-size="17" font-weight="700" fill="#1a1a1a">Edit-error rate grows with block size</text><text x="54" y="45" font-size="12" fill="#666">all models pooled — error rises with size under every style; braceless is worst at every size.</text><line x1="54" y1="286.0" x2="504" y2="286.0" stroke="#ececec" stroke-width="1"/><text x="47" y="290.0" font-size="11" fill="#999" text-anchor="end">0%</text><line x1="54" y1="228.5" x2="504" y2="228.5" stroke="#ececec" stroke-width="1"/><text x="47" y="232.5" font-size="11" fill="#999" text-anchor="end">25%</text><line x1="54" y1="171.0" x2="504" y2="171.0" stroke="#ececec" stroke-width="1"/><text x="47" y="175.0" font-size="11" fill="#999" text-anchor="end">50%</text><line x1="54" y1="113.5" x2="504" y2="113.5" stroke="#ececec" stroke-width="1"/><text x="47" y="117.5" font-size="11" fill="#999" text-anchor="end">75%</text><line x1="54" y1="56.0" x2="504" y2="56.0" stroke="#ececec" stroke-width="1"/><text x="47" y="60.0" font-size="11" fill="#999" text-anchor="end">100%</text><rect x="63.0" y="192.9" width="42.0" height="93.1" fill="#e15759" rx="1.5"/><text x="84.0" y="189.9" font-size="9" fill="#555" text-anchor="middle">40</text><rect x="108.0" y="231.2" width="42.0" height="54.8" fill="#4e79a7" rx="1.5"/><text x="129.0" y="228.2" font-size="9" fill="#555" text-anchor="middle">24</text><rect x="153.0" y="220.3" width="42.0" height="65.7" fill="#59a14f" rx="1.5"/><text x="174.0" y="217.3" font-size="9" fill="#555" text-anchor="middle">29</text><text x="129.0" y="301" font-size="10.5" fill="#333" text-anchor="end" transform="rotate(-32 129.0 301)">small (2 branches)</text><rect x="213.0" y="149.1" width="42.0" height="136.9" fill="#e15759" rx="1.5"/><text x="234.0" y="146.1" font-size="9" fill="#555" text-anchor="middle">60</text><rect x="258.0" y="192.9" width="42.0" height="93.1" fill="#4e79a7" rx="1.5"/><text x="279.0" y="189.9" font-size="9" fill="#555" text-anchor="middle">40</text><rect x="303.0" y="187.4" width="42.0" height="98.6" fill="#59a14f" rx="1.5"/><text x="324.0" y="184.4" font-size="9" fill="#555" text-anchor="middle">43</text><text x="279.0" y="301" font-size="10.5" fill="#333" text-anchor="end" transform="rotate(-32 279.0 301)">medium (5 branches)</text><rect x="363.0" y="138.1" width="42.0" height="147.9" fill="#e15759" rx="1.5"/><text x="384.0" y="135.1" font-size="9" fill="#555" text-anchor="middle">64</text><rect x="408.0" y="176.5" width="42.0" height="109.5" fill="#4e79a7" rx="1.5"/><text x="429.0" y="173.5" font-size="9" fill="#555" text-anchor="middle">48</text><rect x="453.0" y="182.0" width="42.0" height="104.0" fill="#59a14f" rx="1.5"/><text x="474.0" y="179.0" font-size="9" fill="#555" text-anchor="middle">45</text><text x="429.0" y="301" font-size="10.5" fill="#333" text-anchor="end" transform="rotate(-32 429.0 301)">large (10 branches)</text><rect x="54" y="349" width="13" height="13" fill="#e15759" rx="2"/><text x="72" y="360" font-size="12.5" fill="#333">braceless</text><rect x="172" y="349" width="13" height="13" fill="#4e79a7" rx="2"/><text x="190" y="360" font-size="12.5" fill="#333">braces</text><rect x="290" y="349" width="13" height="13" fill="#59a14f" rx="2"/><text x="308" y="360" font-size="12.5" fill="#333">common</text></svg>
