<svg xmlns="http://www.w3.org/2000/svg" viewBox="0 0 670 378" width="670" height="378" font-family="-apple-system,Segoe UI,Roboto,Helvetica,sans-serif"><rect width="670" height="378" fill="white"/><text x="54" y="27" font-size="17" font-weight="700" fill="#1a1a1a">What kind of failure?</text><text x="54" y="45" font-size="12" fill="#666">each style's 126 attempts, split by outcome — pass, silent mis-scope, or loud compile error.</text><line x1="54" y1="286.0" x2="570" y2="286.0" stroke="#ececec" stroke-width="1"/><text x="47" y="290.0" font-size="11" fill="#999" text-anchor="end">0%</text><line x1="54" y1="228.5" x2="570" y2="228.5" stroke="#ececec" stroke-width="1"/><text x="47" y="232.5" font-size="11" fill="#999" text-anchor="end">25%</text><line x1="54" y1="171.0" x2="570" y2="171.0" stroke="#ececec" stroke-width="1"/><text x="47" y="175.0" font-size="11" fill="#999" text-anchor="end">50%</text><line x1="54" y1="113.5" x2="570" y2="113.5" stroke="#ececec" stroke-width="1"/><text x="47" y="117.5" font-size="11" fill="#999" text-anchor="end">75%</text><line x1="54" y1="56.0" x2="570" y2="56.0" stroke="#ececec" stroke-width="1"/><text x="47" y="60.0" font-size="11" fill="#999" text-anchor="end">100%</text><rect x="100.4" y="182.0" width="79.1" height="104.0" fill="#59a14f"/><text x="140.0" y="238.0" font-size="11" font-weight="600" fill="#ffffff" text-anchor="middle">45%</text><rect x="100.4" y="114.4" width="79.1" height="67.5" fill="#e8a33d"/><text x="140.0" y="152.2" font-size="11" font-weight="600" fill="#ffffff" text-anchor="middle">29%</text><rect x="100.4" y="56.0" width="79.1" height="58.4" fill="#e15759"/><text x="140.0" y="89.2" font-size="11" font-weight="600" fill="#ffffff" text-anchor="middle">25%</text><text x="140.0" y="303" font-size="12.5" fill="#333" text-anchor="middle">braceless</text><rect x="272.4" y="141.8" width="79.1" height="144.2" fill="#59a14f"/><text x="312.0" y="217.9" font-size="11" font-weight="600" fill="#ffffff" text-anchor="middle">63%</text><rect x="272.4" y="76.1" width="79.1" height="65.7" fill="#e8a33d"/><text x="312.0" y="112.9" font-size="11" font-weight="600" fill="#ffffff" text-anchor="middle">29%</text><rect x="272.4" y="56.0" width="79.1" height="20.1" fill="#e15759"/><text x="312.0" y="70.0" font-size="11" font-weight="600" fill="#ffffff" text-anchor="middle">9%</text><text x="312.0" y="303" font-size="12.5" fill="#333" text-anchor="middle">braces</text><rect x="444.4" y="145.4" width="79.1" height="140.6" fill="#59a14f"/><text x="484.0" y="219.7" font-size="11" font-weight="600" fill="#ffffff" text-anchor="middle">61%</text><rect x="444.4" y="90.7" width="79.1" height="54.8" fill="#e8a33d"/><text x="484.0" y="122.1" font-size="11" font-weight="600" fill="#ffffff" text-anchor="middle">24%</text><rect x="444.4" y="56.0" width="79.1" height="34.7" fill="#e15759"/><text x="484.0" y="77.3" font-size="11" font-weight="600" fill="#ffffff" text-anchor="middle">15%</text><text x="484.0" y="303" font-size="12.5" fill="#333" text-anchor="middle">common</text><rect x="54" y="337" width="13" height="13" fill="#59a14f" rx="2"/><text x="72" y="348" font-size="12.5" fill="#333">passed</text><rect x="204" y="337" width="13" height="13" fill="#e8a33d" rx="2"/><text x="222" y="348" font-size="12.5" fill="#333">silent mis-scope</text><rect x="354" y="337" width="13" height="13" fill="#e15759" rx="2"/><text x="372" y="348" font-size="12.5" fill="#333">compile error</text></svg>
