<svg xmlns="http://www.w3.org/2000/svg" width="1127.2" height="590" viewBox="0 0 1127.2 590" font-family="ui-sans-serif, system-ui, -apple-system, 'Segoe UI', Roboto, sans-serif">
  <style>
    :root { --bg:#ffffff; --fg:#1b1b2b; --box:#eef0fb; --boxline:#9aa0d0; --life:#c3c3d6; --line:#5a5f86; --notebg:#fff6d8; --noteline:#e0c86a; }
    @media (prefers-color-scheme: dark) { :root { --bg:#1b1b24; --fg:#e6e6f0; --box:#2a2d44; --boxline:#5a5f86; --life:#44465e; --line:#a6abd8; --notebg:#403a23; --noteline:#8a7a3a; } }
    text { fill: var(--fg); }
    .canvas { fill: var(--bg); }
    .lbl { font-size: 13px; }
    .title { font-size: 16px; font-weight: 600; }
    .box { fill: var(--box); stroke: var(--boxline); stroke-width: 1; }
    .note { fill: var(--notebg); stroke: var(--noteline); stroke-width: 1; }
    .life { stroke: var(--life); stroke-width: 1; stroke-dasharray: 4 4; }
    .msg { stroke: var(--line); stroke-width: 1.4; }
    .ret { stroke: var(--line); stroke-width: 1.2; stroke-dasharray: 6 4; }
    .head { fill: var(--line); }
  </style>
  <rect class="canvas" x="0" y="0" width="1127.2" height="590"/>
  <text class="title" x="563.6" y="28" text-anchor="middle">The compact dance (a note to sleep, not collapse)</text>
  <line class="life" x1="155.9" y1="76" x2="155.9" y2="542"/>
  <rect class="box" x="110.9" y="42" width="90" height="34" rx="6"/>
  <text class="lbl" x="155.9" y="59" text-anchor="middle" dominant-baseline="central">BR</text>
  <rect class="box" x="110.9" y="542" width="90" height="34" rx="6"/>
  <text class="lbl" x="155.9" y="559" text-anchor="middle" dominant-baseline="central">BR</text>
  <line class="life" x1="427.7" y1="76" x2="427.7" y2="542"/>
  <rect class="box" x="353.3" y="42" width="148.9" height="34" rx="6"/>
  <text class="lbl" x="427.7" y="59" text-anchor="middle" dominant-baseline="central">Claude Opus 4.8</text>
  <rect class="box" x="353.3" y="542" width="148.9" height="34" rx="6"/>
  <text class="lbl" x="427.7" y="559" text-anchor="middle" dominant-baseline="central">Claude Opus 4.8</text>
  <line class="life" x1="699.5" y1="76" x2="699.5" y2="542"/>
  <rect class="box" x="654.5" y="42" width="90" height="34" rx="6"/>
  <text class="lbl" x="699.5" y="59" text-anchor="middle" dominant-baseline="central">Harness</text>
  <rect class="box" x="654.5" y="542" width="90" height="34" rx="6"/>
  <text class="lbl" x="699.5" y="559" text-anchor="middle" dominant-baseline="central">Harness</text>
  <line class="life" x1="971.3" y1="76" x2="971.3" y2="542"/>
  <rect class="box" x="925.1" y="42" width="92.5" height="34" rx="6"/>
  <text class="lbl" x="971.3" y="59" text-anchor="middle" dominant-baseline="central">Codeberg</text>
  <rect class="box" x="925.1" y="542" width="92.5" height="34" rx="6"/>
  <text class="lbl" x="971.3" y="559" text-anchor="middle" dominant-baseline="central">Codeberg</text>
  <line class="msg" x1="155.9" y1="106" x2="426.7" y2="106"/>
  <path class="head" stroke="none" d="M 427.7 106 L 418.7 102 L 418.7 110 Z"/>
  <text class="lbl" x="291.8" y="99" text-anchor="middle">note: at a consolidation point</text>
  <path class="msg" fill="none" d="M 427.7 152 L 493.7 152 L 493.7 168 L 433.7 168"/>
  <path class="head" stroke="none" d="M 433.7 168 L 442.7 164 L 442.7 172 Z"/>
  <text class="lbl" x="501.7" y="154" text-anchor="start">assess context fill vs Z</text>
  <line class="msg" x1="427.7" y1="198" x2="698.5" y2="198"/>
  <path class="head" stroke="none" d="M 699.5 198 L 690.5 194 L 690.5 202 Z"/>
  <text class="lbl" x="563.6" y="191" text-anchor="middle">tt git commit + push</text>
  <line class="msg" x1="699.5" y1="244" x2="970.3" y2="244"/>
  <path class="head" stroke="none" d="M 971.3 244 L 962.3 240 L 962.3 248 Z"/>
  <text class="lbl" x="835.4" y="237" text-anchor="middle">push branch main</text>
  <line class="ret" x1="971.3" y1="290" x2="700.5" y2="290"/>
  <path class="msg" fill="none" d="M 708.5 286 L 699.5 290 L 708.5 294"/>
  <text class="lbl" x="835.4" y="283" text-anchor="middle">ok</text>
  <line class="ret" x1="699.5" y1="336" x2="428.7" y2="336"/>
  <path class="msg" fill="none" d="M 436.7 332 L 427.7 336 L 436.7 340"/>
  <text class="lbl" x="563.6" y="329" text-anchor="middle">pushed</text>
  <line class="ret" x1="427.7" y1="382" x2="156.9" y2="382"/>
  <path class="msg" fill="none" d="M 164.9 378 L 155.9 382 L 164.9 386"/>
  <text class="lbl" x="291.8" y="375" text-anchor="middle">resume prompt (framed)</text>
  <rect class="note" x="110.9" y="428" width="361.8" height="34" rx="3"/>
  <text class="lbl" x="291.8" y="445" text-anchor="middle" dominant-baseline="central">BR triggers /compact</text>
  <line class="msg" x1="155.9" y1="490" x2="426.7" y2="490"/>
  <path class="head" stroke="none" d="M 427.7 490 L 418.7 486 L 418.7 494 Z"/>
  <text class="lbl" x="291.8" y="483" text-anchor="middle">resume (fresh context)</text>
</svg>
